# xmcd CD database file
# Copyright (C) 1995-1998 Ti Kan
#
# Track frame offsets:
#	150
#	17985
#	32308
#	47765
#	59578
#	78795
#	101398
#	116541
#	135376
#	149815
#
# Disc length: 2245 seconds
#
# Revision: 1
# Processed by: cddbd v1.4b41PL1 Copyright (c) Steve Scherf et al.
# Submitted via: CDex 1.30Release
#
DISCID=8008c30a
DTITLE=Willie Foster - At Home With The Blues
DYEAR=1993
DGENRE=Blues
TTITLE0=Love Everybody
TTITLE1=Honey Ain't Sweet
TTITLE2=Chicken Scratch
TTITLE3=Why You Treat Me This Way
TTITLE4=Promise Me Love
TTITLE5=My Dear Old Dad
TTITLE6=Going To St. Louis
TTITLE7=I'm Ready
TTITLE8=Chestereen
TTITLE9=Barbara Ann
EXTD=YEAR: 1993 ID3G:   0
EXTT0=
EXTT1=
EXTT2=
EXTT3=
EXTT4=
EXTT5=
EXTT6=
EXTT7=
EXTT8=
EXTT9=
PLAYORDER=
